<svg width="42" height="65" viewBox="0 0 42 65" fill="none" xmlns="http://www.w3.org/2000/svg">
<path d="M8.22002 14.3022L17.8774 19.9035C17.9203 19.9281 17.9421 19.9656 17.9414 20.0147L17.9448 55.5841C17.9455 55.6339 17.9237 55.6708 17.8808 55.6953L10.1738 64.1075C10.1309 64.1328 10.0887 64.1328 10.0458 64.1075C10.0029 64.083 9.98184 64.0461 9.98184 63.9963V28.6296C9.98184 28.5804 9.96074 28.5429 9.91786 28.5184L0.49594 23.0651C0.453061 23.0405 0.431962 23.0037 0.431962 22.9539L0.428558 9.34835C0.428558 9.29923 0.449658 9.26171 0.492537 9.23715L8.08526 0.892483C8.12746 0.86724 8.17034 0.86724 8.21322 0.892483L41.5074 20.1832C41.5503 20.2085 41.5714 20.2453 41.5714 20.2951V34.1333C41.5714 34.1824 41.5503 34.22 41.5074 34.2445L27.1047 47.6994C27.0618 47.7239 27.0189 47.7239 26.9767 47.6994C26.9339 47.6741 26.9128 47.6373 26.9128 47.5875L26.9094 25.3595C26.9094 25.3104 26.9305 25.2736 26.9733 25.2483C27.0155 25.2238 27.0584 25.2238 27.1013 25.2483L38.5236 31.8723C38.5664 31.8969 38.6093 31.8969 38.6522 31.8723C38.6944 31.8478 38.7162 31.8102 38.7155 31.7611L38.7121 21.8507C38.7128 21.8009 38.691 21.764 38.6481 21.7388L8.36432 4.19255C8.32212 4.16731 8.27924 4.16799 8.23636 4.19255C8.19348 4.21711 8.17238 4.25395 8.17238 4.30376L8.15605 14.1903C8.15536 14.2401 8.17714 14.277 8.22002 14.3022Z" fill="#140A04"/>
</svg>
